<svg xmlns="http://www.w3.org/2000/svg" viewBox="0 0 212.47 228.22"><defs><style>.a{fill:#dd0031;}.b{fill:#c3002f;}.c{fill:#fff;}</style></defs><title>angular-icon-sm</title><polygon class="a" points="106.24 0 106.24 0 106.24 0 0 37.88 16.2 178.35 106.24 228.22 106.24 228.22 106.24 228.22 196.27 178.35 212.47 37.88 106.24 0"/><polygon class="b" points="106.24 0 106.24 25.33 106.24 25.22 106.24 140.81 106.24 140.81 106.24 228.22 106.24 228.22 196.27 178.35 212.47 37.88 106.24 0"/><path class="c" d="M131.06,51.88,64.65,200.8H89.41l13.35-33.32h56.37l13.35,33.32h24.76L131.06,51.88Zm19.4,95.05h-38.8l19.4-46.67Z" transform="translate(-24.83 -26.67)"/></svg>