<svg id="Layer_1" data-name="Layer 1" xmlns="http://www.w3.org/2000/svg" viewBox="0 0 575.97 157.38"><defs><style>.cls-1{fill:#ccc;}.cls-2{fill:#fff;}.cls-3{fill:#bc1111;}.cls-4{fill:#dd1b16;}</style></defs><title>angular-icon</title><g id="g12"><polygon id="polygon14" class="cls-1" points="176.57 47.63 219.9 104.66 219.9 47.63 228.56 47.63 228.56 118.43 219.4 118.43 176.08 60.89 176.08 118.43 167.41 118.43 167.41 47.63 176.57 47.63"/><path id="path16" class="cls-1" d="M312.2,129.24a51.3,51.3,0,0,1-18.47,3.27q-38.46,0-38.47-36.89,0-34.91,37.13-34.91a63.74,63.74,0,0,1,19.81,3v7.92a52.73,52.73,0,0,0-18.82-3.47q-29,0-29,27.48,0,29.46,28.52,29.46a48.45,48.45,0,0,0,10.1-1.19V99.83h9.16v29.41h0Z" transform="translate(-13.33 -13.59)"/><path id="path18" class="cls-1" d="M326.8,104.69V61.22H336v43.47q0,20.4,20.3,20.41t20.3-20.41V61.22h9.16v43.47q0,27.84-29.46,27.83T326.8,104.69Z" transform="translate(-13.33 -13.59)"/><polygon id="polygon20" class="cls-1" points="434.93 111.01 434.93 118.43 388.73 118.43 388.73 47.63 397.88 47.63 397.88 111.01 434.93 111.01"/><polygon id="polygon22" class="cls-1" points="473.84 38.29 509.04 118.43 498.89 118.43 489.73 96.15 466.31 96.15 468.84 88.73 486.66 88.73 473.44 56.64 448.14 118.43 438.64 118.43 473.84 38.29"/><path id="path24" class="cls-1" d="M532,132V61.21h30.2q20.2,0,20.2,17,0,13.82-19.75,20.45L587,132H574.9l-22.52-31.83v-6q20.3-3.23,20.29-15.6,0-9.8-11.28-9.81H541.19V132H532Z" transform="translate(-13.33 -13.59)"/><polygon id="polygon30" class="cls-2" points="178.89 45.32 222.21 102.35 222.21 45.32 230.88 45.32 230.88 116.12 221.72 116.12 178.39 58.58 178.39 116.12 169.73 116.12 169.73 45.32 178.89 45.32"/><path id="path32" class="cls-2" d="M314.52,126.93A51.28,51.28,0,0,1,296,130.2q-38.47,0-38.47-36.88,0-34.91,37.14-34.91a63.77,63.77,0,0,1,19.8,3V69.3a52.73,52.73,0,0,0-18.81-3.47q-29,0-29,27.48,0,29.46,28.52,29.46a48.33,48.33,0,0,0,10.1-1.19V97.52h9.15v29.41Z" transform="translate(-13.33 -13.59)"/><path id="path34" class="cls-2" d="M329.12,102.37V58.9h9.15v43.47q0,20.4,20.3,20.4t20.3-20.4V58.9H388v43.47q0,27.83-29.46,27.83t-29.46-27.82Z" transform="translate(-13.33 -13.59)"/><polygon id="polygon36" class="cls-2" points="437.24 108.69 437.24 116.11 391.05 116.11 391.05 45.31 400.2 45.31 400.2 108.69 437.24 108.69"/><polygon id="polygon38" class="cls-2" points="476.15 35.97 511.36 116.12 501.2 116.12 492.04 93.83 468.63 93.83 471.16 86.41 488.98 86.41 475.76 54.32 450.46 116.12 440.95 116.12 476.15 35.97"/><path id="path40" class="cls-2" d="M534.34,129.7V58.9h30.2q20.2,0,20.2,17,0,13.81-19.75,20.44L589.3,129.7H577.22L554.7,97.87v-6Q575,88.65,575,76.28q0-9.8-11.29-9.8H543.5V129.7Z" transform="translate(-13.33 -13.59)"/></g><g id="g48"><polygon id="polygon52" class="cls-3" points="73.22 157.38 136.21 122.52 148.38 25.64 73.22 0 73.22 157.38"/><polygon id="polygon54" class="cls-4" points="73.22 157.38 73.22 0 0 26.1 11.2 122.99 73.22 157.38"/><path id="path56" class="cls-2" d="M107.24,97.37,86.55,107H64.74L54.49,132.69,35.42,133,86.55,19.3Zm-2-4.87L86.69,55.77,71.47,91.87H86.55Z" transform="translate(-13.33 -13.59)"/><polygon id="polygon58" class="cls-2" points="90.62 78.31 73.25 78.31 73.22 93.44 97.23 93.46 108.45 119.46 126.7 119.8 73.22 5.72 73.35 42.19 90.62 78.31"/></g></svg>