<svg xmlns="http://www.w3.org/2000/svg" viewBox="0 0 67.5 42.09"><defs><style>.a{fill:#f7981f;}.b{fill:#fff;}</style></defs><title>aws-icon</title><polygon class="a" points="18.43 21.07 16.54 28.89 20.29 28.89 18.47 21.07 18.43 21.07"/><path class="a" d="M1.25,43.53v1.14C1.25,50.33,7.36,56,14.9,56H55.1c7.54,0,13.65-5.72,13.65-11.38V43.53c0-5.26-5.29-11.86-12.1-12.44A8.74,8.74,0,0,0,43,24.16a17.25,17.25,0,0,0-33,7c0,.17,0,.33,0,.5C4.89,33.19,1.25,39.18,1.25,43.53Zm21.69,5.22-1-3.89H17.32l-1,3.89H13.66l4.51-15.86h3.24l4.17,15.86Zm15.39,0H35.41l-2-11.95h0l-2,11.95H28.37L25.3,32.89h2.56l2.09,12.32h0l2.09-12.32h2.67l2.13,12.39h0L39,32.89h2.51Zm9.28.31c-3.93,0-4.82-2.62-4.82-4.84v-.38h2.53v.4c0,1.93.84,2.91,2.6,2.91a2.25,2.25,0,0,0,2.4-2.31A2.66,2.66,0,0,0,48.06,42l-1.73-.6C44,40.53,43,39.33,43,37.07c0-2.89,2-4.49,4.93-4.49,4.06,0,4.49,2.53,4.49,4.17v.36H49.9v-.33c0-1.45-.64-2.29-2.22-2.29a2,2,0,0,0-2.13,2.29c0,1.35.69,2,2.38,2.69l1.71.62c2.24.8,3.22,2,3.22,4.2C52.86,47.66,50.82,49.06,47.62,49.06Z" transform="translate(-1.25 -13.95)"/><path class="b" d="M18.17,32.89,13.66,48.75H16.3l1-3.89H22l1,3.89h2.64L21.41,32.89Zm-.38,9.95L19.68,35h0l1.82,7.82Z" transform="translate(-1.25 -13.95)"/><polygon class="b" points="35.67 31.33 35.62 31.33 33.49 18.94 30.82 18.94 28.74 31.26 28.69 31.26 26.61 18.94 24.05 18.94 27.12 34.8 30.05 34.8 32.07 22.85 32.11 22.85 34.16 34.8 37.09 34.8 40.24 18.94 37.73 18.94 35.67 31.33"/><path class="b" d="M49.64,40.09l-1.71-.62c-1.69-.64-2.38-1.33-2.38-2.69a2,2,0,0,1,2.13-2.29c1.58,0,2.22.84,2.22,2.29v.33h2.53v-.36c0-1.64-.42-4.17-4.49-4.17-3,0-4.93,1.6-4.93,4.49,0,2.27,1,3.46,3.31,4.35l1.73.6a2.66,2.66,0,0,1,2.26,2.82,2.25,2.25,0,0,1-2.4,2.31c-1.75,0-2.6-1-2.6-2.91v-.4H42.8v.38c0,2.22.89,4.84,4.82,4.84,3.2,0,5.24-1.4,5.24-4.77C52.86,42.11,51.88,40.89,49.64,40.09Z" transform="translate(-1.25 -13.95)"/></svg>