<svg xmlns="http://www.w3.org/2000/svg" viewBox="0 0 2000 750.15"><defs><style>.a{fill:#11100e;}.b{fill:#f58d12;}</style></defs><title>aws-icon</title><path class="a" d="M2001,525c-2.85,4.07-6.81,5.09-11.62,5-12.16-.23-24.32-.06-36.48-.08-8,0-10.66-2.71-10.66-10.88q0-66.22,0-132.44a90,90,0,0,0-3-24.17c-5.95-21.51-30.93-22.29-42.44-9.2-7.74,8.81-10.18,19.59-11.75,30.71-1,7.28-1,14.61-1,21.95q0,56.47,0,112.95c0,8.36-2.69,11.08-11,11.09q-18.74,0-37.48,0c-7.16,0-10.17-2.85-10.17-9.89q-.09-107.7-.08-215.4c0-6.38,3.09-9.49,9.53-9.55q18.49-.16,37,0c6.19.05,9.07,3.11,9.09,9.3,0,9.89,0,19.79.44,29.77,3.3-6.19,6.32-12.37,9.85-18.31,21.29-35.79,80.36-32.39,99.14,1.31,6.15,11,8.28,23,9.66,35.32.17,1.52-.73,3.35,1,4.53Z" transform="translate(-1 -1)"/><path class="b" d="M1,299c10.33,1.8,20.15,5.48,30.17,8.39,27.28,7.93,54.44,16.24,81.71,24.2,3.29,1,4.48,2.18,4.47,5.72q-.24,81.66-.11,163.32c0,4.2-1,4.56-4.67,3.32Q59.69,486.14,6.72,468.59C4.85,468,2.91,467.53,1,467Q1,383,1,299Z" transform="translate(-1 -1)"/><path class="b" d="M573,1c13.14,5.13,26.8,8.61,40.21,12.87C633.81,20.4,654.49,26.65,675.13,33c1.1.34,2.17.75,4.42,1.54l-37.29,9.87q-33.74,8.94-67.46,17.91a9.89,9.89,0,0,1-5.36.34q-51-13.76-102.06-27.47c-.57-.15-1.12-.37-2.56-.85,15.71-4.94,30.58-9.63,45.46-14.28Q539.31,11,568.34,2A8.67,8.67,0,0,0,570,1Z" transform="translate(-1 -1)"/><path class="b" d="M866,1c14.44,5.44,29.36,9.37,44.05,14,19.33,6.1,38.73,12,58.09,18,1.1.34,2.17.76,4.36,1.54-13.55,3.64-26.05,7-38.58,10.36-22,5.83-44,11.59-66,17.44a9.93,9.93,0,0,1-5.36.39Q811.5,49,760.47,35.26c-.59-.16-1.16-.41-2.5-.89L810,18q25.44-8,50.89-16A13.92,13.92,0,0,0,863,1Z" transform="translate(-1 -1)"/><path class="a" d="M910.6,330.12c10.89-25.07,28.72-39.21,56.54-39.59,28.31-.39,45.13,15.28,55.95,40.61,6.21-15.4,15.51-26.66,29.43-33.79,26-13.31,59.8-6.84,77.36,14.78,8,9.84,11,21.41,12.17,33.72,1.26,13.81.46,27.64.45,41.47q-.06,65.24-.06,130.48c0,9.83-2.26,12.11-11.94,12.12H1096c-9.95,0-12.11-2.11-12.11-11.85q0-65.24.08-130.48a169.11,169.11,0,0,0-.71-18.47c-1.08-9.85-4.2-18.56-14.46-21.89-11.42-3.71-22.05-1.86-30.86,7-6,6-7.87,13.69-8.92,21.73a169.22,169.22,0,0,0-1.07,21.95q0,60.24,0,120.48c0,9-2.51,11.54-11.55,11.55q-18.25,0-36.49,0c-8,0-10.72-2.77-10.72-10.88q0-65,.07-130c0-8.17-.13-16.32-2.23-24.31-3.29-12.51-10.51-19-22-19.67-13.28-.76-22.38,4.85-27.07,16.8-4.61,11.75-4.61,24.15-4.66,36.45-.16,39.66-.07,79.32-.08,119,0,10.73-1.92,12.61-12.88,12.61q-17.5,0-35,0c-8,0-10.62-2.54-10.62-10.3q0-107,0-214c0-7.89,2.63-10.58,10.38-10.61q17.75-.07,35.49,0c7,0,9.89,3,9.94,10.13C910.64,313.49,910.6,321.81,910.6,330.12Z" transform="translate(-1 -1)"/><path class="a" d="M821.81,490.5a49.48,49.48,0,0,0-4.05-5.69c-9.23-11.35-12.95-24.3-12.78-38.91.33-29.49.4-59-.1-88.46-.58-34.7-17.44-56-51-64.84a128.41,128.41,0,0,0-78.55,3.67c-26.48,9.78-43.11,28.57-48.79,56.54-1.15,5.64,1.5,9.46,7.28,10.13q18.36,2.12,36.74,4c6.71.67,9.56-.93,10.86-7.34,3.51-17.2,19-27.67,39.49-25.48,12.63,1.35,20.88,9.35,23.27,21.81,1.36,7.12.55,14.29,1,21.42.22,3.56-1.16,4.39-4.46,4.68-17.74,1.54-35.47,3.3-52.91,7-18.86,4.05-36.39,11-49.65,25.73-17.75,19.69-22,43.1-17.37,68.48,3.84,21.11,15,37.07,35.54,44.64,22.34,8.24,44.8,6.81,66.6-2.64,12-5.19,21.25-14.14,30.86-23.56,6.06,9.86,12.65,18.61,21.11,25.81,6,5.13,9.57,5.23,15.69,0Q805.33,514.77,820,502C824,498.5,824.57,495.09,821.81,490.5Zm-76.68-71.1c-.21,4-.05,8-.05,12,.22,14.83-1.25,29.26-9.91,42a38.27,38.27,0,0,1-13.7,12.82c-18.34,9.7-37.39-.48-39.51-21.09-2.64-25.74,9.54-41.75,35.83-47a138.3,138.3,0,0,1,23.81-2.33C744.59,415.71,745.28,416.66,745.13,419.41Z" transform="translate(-1 -1)"/><path class="a" d="M1383.25,492.09a26,26,0,0,0-3.48-5.44c-10.35-12.31-14.21-26.38-14.08-42.48.24-31.3,1.39-62.65-.68-93.93-1.68-25.44-14.22-43.77-38-53.2-33-13.08-66.19-11.8-98.47,2.57-22.65,10.08-36,28.3-41.19,52.47-1.33,6.19,1.1,10.15,7,10.84q18.85,2.21,37.74,4c6,.58,8.71-1.19,10-7.18,4-18.47,20.19-27.89,39.85-25.63,13,1.49,21.31,10.1,23.22,23,1,6.64.51,13.31.9,19.94.23,3.91-1.39,4.63-4.8,4.92-17.57,1.54-35.13,3.32-52.42,7-18.89,4-36.42,10.92-49.74,25.56-18.43,20.25-22.31,44.38-17.21,70.38,3.91,19.92,14.75,35.43,34,42.45,27.25,9.93,53.95,7.73,78.73-8.49,7.26-4.75,13.31-11,19.9-17.11,6.33,10.15,13.25,19.45,22.42,26.84,4.31,3.47,8.39,3.83,12.61.25,10.81-9.14,21.44-18.48,32.12-27.77C1384.56,498.58,1384.84,495.4,1383.25,492.09Zm-77.31-72.71c-.06.91-.09,1.83-.1,2.74,0,2.75,0,5.5,0,8.25-.05,9-.35,17.87-2.6,26.46-.24.92-.49,1.83-.78,2.74q-.69,2.17-1.57,4.31-.44,1.07-.94,2.13c-4.36,9.27-10.41,17-20.08,21.29-16.94,7.48-33.71-1.5-36.9-19.71-4.55-26,8.36-44,35.47-49.48a134.53,134.53,0,0,1,23.82-2.31C1305.18,415.74,1306.11,416.53,1305.94,419.38Z" transform="translate(-1 -1)"/><path class="a" d="M1303.29,456.83c-.24.92-.49,1.83-.78,2.74C1302.79,458.65,1303,457.74,1303.29,456.83Z" transform="translate(-1 -1)"/><path class="a" d="M1302.51,459.56q-.69,2.17-1.57,4.31Q1301.82,461.74,1302.51,459.56Z" transform="translate(-1 -1)"/><path class="a" d="M1777.09,340.76c-16.62-31.6-42.53-49.11-78.71-50.08-34.35-.92-60.94,13.18-79.12,42.33-15,24.06-19.58,50.95-20,78.81.27,23.53,3.63,46.47,13.77,67.95,14.41,30.57,37.35,50.49,71.81,54,36.88,3.79,66.08-10.21,86.81-41,14.34-21.29,20.45-45.29,21.45-70.7C1794.2,393.74,1790.47,366.21,1777.09,340.76ZM1727,455.85a59,59,0,0,1-7.22,19.52c-11.76,19.13-36.72,18.48-47.29-1.32-6.66-12.46-8.35-26.22-9.28-40-.56-8.28-.1-16.63-.1-25-.5-16-.72-32,3.9-47.52a62.71,62.71,0,0,1,4.18-10.63c5.33-10.42,13.88-15.87,25.71-15.63,12.91.26,21.7,6.49,26.07,18.66,4.15,11.52,5.91,23.55,6.49,35.7C1730.51,411.79,1731.41,433.94,1727,455.85Z" transform="translate(-1 -1)"/><path class="a" d="M1491.3,453c18.2-.13,35.23,1.29,51.89,5.9a138.3,138.3,0,0,1,26.8,10.64c6,3.09,8.77,8,8.84,14.5.1,10.16.13,20.33,0,30.49-.11,8.08-5.33,11-12.68,7.59-48.16-22.55-96.29-22.78-144.34.37-6.55,3.16-11.75.21-11.83-7.05q-.19-18,.07-36c.1-7.58,3.19-14.07,7.5-20.23q39.5-56.45,78.77-113.05c.83-1.2,1.66-2.41,3-4.4h-4.85q-33,0-66,0c-8,0-10.56-2.46-10.57-10.32q0-13.5,0-27c0-7.36,2.46-9.87,9.91-9.92,11.5-.08,23,0,34.49,0q50.24,0,100.48,0c9.75,0,11.73,2,11.75,11.71,0,4.83-.37,9.7.08,14.49.85,9-2.22,16.41-7.34,23.65-24,34-47.77,68.13-71.62,102.23C1494.39,448.49,1493.12,450.38,1491.3,453Z" transform="translate(-1 -1)"/><path class="b" d="M996.19,136.84c0,26.32-.08,52.64.09,79,0,3.8-1.05,5.35-4.74,6.57Q938.28,240,885.18,258.1c-3.94,1.34-5.07,1-5.06-3.51q.2-81.47,0-162.93c0-3.52,1.14-4.83,4.39-5.78Q938.6,70,992.58,53.87c3.29-1,4.29-.73,4.28,3-.14,26.65-.07,53.31-.07,80Z" transform="translate(-1 -1)"/><path class="b" d="M587.12,173.24c0-27.16.07-54.32-.08-81.47,0-3.41.9-4.88,4.26-5.87q54.09-15.81,108.07-32c3.9-1.17,4.38-.11,4.36,3.43q-.41,79.72-.55,159.44c0,3-.85,4.34-3.7,5.29q-54.2,18-108.3,36.28c-3.69,1.25-4.12.22-4.11-3.11C587.16,227.88,587.12,200.56,587.12,173.24Z" transform="translate(-1 -1)"/><path class="b" d="M263.66,751.15,251.17,747c-33-11-65.91-22.06-98.94-32.88-3.72-1.22-4.68-2.91-4.67-6.65q.19-78.72.09-157.45c0-5.68,0-5.7,5.4-4.11q53.1,15.68,106.19,31.35c2.86.84,4.84,1.59,4.82,5.51-.19,55-.17,110-.2,164.95C263.87,748.67,263.75,749.63,263.66,751.15Z" transform="translate(-1 -1)"/><path class="b" d="M294.06,751.09c0-2,0-3.53,0-5q0-81.19-.1-162.38c0-3.9,1.3-5.46,4.86-6.5q53.36-15.59,106.62-31.52c4.32-1.3,5-.22,5,3.86q-.32,79.44-.36,158.88c0,2.55-.3,4.07-3.26,5-36.76,12.18-73.45,24.55-110.15,36.87C296.05,750.53,295.43,750.69,294.06,751.09Z" transform="translate(-1 -1)"/><path class="b" d="M850,173.19c0,27.16,0,54.32.06,81.48,0,3.57-.11,5.05-4.49,3.57q-53.39-18.1-107-35.68c-3.54-1.16-4.88-2.58-4.87-6.52q.23-79,0-158c0-4.23.56-5.37,5-4q53.48,16.14,107.11,31.79c3.42,1,4.25,2.49,4.23,5.85-.14,27.16-.08,54.32-.08,81.48Z" transform="translate(-1 -1)"/><path class="b" d="M410.24,419.51c0,27-.06,54,.07,81,0,3.79-.5,4.9-4.57,3.53q-53.87-18.21-107.88-36c-3.11-1-3.89-2.51-3.88-5.65q.16-79.48,0-159c0-4.58,1.3-4.67,5.1-3.53q53.49,16.1,107.11,31.79c3.48,1,4.31,2.52,4.29,5.88-.12,27.33-.07,54.65-.07,82Z" transform="translate(-1 -1)"/><path class="b" d="M556.94,173.4c0,27-.12,54,.11,81,0,4.8-1.25,5-5.26,3.65q-53.15-18-106.44-35.55c-3.74-1.23-4.69-2.91-4.68-6.65q.19-78.73,0-157.46c0-4.4.54-5.68,5.3-4.25Q499.44,70.27,553.08,85.9c3.27,1,4,2.41,4,5.52-.1,27.33-.06,54.65-.06,82Z" transform="translate(-1 -1)"/><path class="b" d="M440.76,418.94c0-27.16.06-54.33-.08-81.49,0-3.43.94-4.83,4.34-5.82q53.87-15.75,107.6-32c3.75-1.13,4.45-.35,4.44,3.34q-.27,79.74-.27,159.48c0,2.95-.85,4.38-3.75,5.35q-54,17.94-107.84,36.19c-4.2,1.43-4.53,0-4.51-3.59C440.82,473.27,440.76,446.11,440.76,418.94Z" transform="translate(-1 -1)"/><path class="b" d="M147.65,419.07c0-27,.07-54-.08-81,0-3.73.85-5.47,4.71-6.6q53.4-15.56,106.64-31.66c4.57-1.38,5.14-.24,5.12,4q-.35,78.74-.3,157.47c0,4.07-1.27,5.61-5.08,6.87q-53,17.55-105.91,35.61c-4.21,1.43-5.22.83-5.19-3.75C147.75,473.06,147.65,446.07,147.65,419.07Z" transform="translate(-1 -1)"/><path class="a" d="M662.69,696.48q9.67-36.58,19.34-73.15c1.28-4.82,2.59-9.63,3.88-14.45,1.09-4.06,3.68-6,7.92-6.24,14-.75,14.67-.31,18.39,12.88,7.71,27.33,15.43,54.65,23.21,82.19,2.13-1.12,1.92-3.21,2.37-4.78q11.62-40.49,23.06-81c2.22-7.82,3.93-9.15,11.87-9.23h2.5c10.05,0,11.55,2,9,11.51Q767,677.45,749.87,740.73c-2.28,8.42-3.38,9.27-12,9.27-13.29,0-13.26,0-16.88-12.81-7.69-27.17-15.42-54.33-23.49-82.73-3.69,14.06-7.09,26.94-10.45,39.83-4.11,15.76-8.17,31.53-12.28,47.29-1.88,7.22-3.53,8.46-11.21,8.41-12.84-.09-13.55,2.3-17.91-13.43-11.5-41.48-23.34-82.86-35-124.28-1.84-6.52,0-9.39,6.6-9.53,20.14-.42,18.67-.86,23.3,16.45,6.66,24.88,13.55,49.71,20.35,74.55.25.91.54,1.8.81,2.7Z" transform="translate(-1 -1)"/><path class="a" d="M1041.88,634.21c-14.77-38.57-63.51-44.68-83.92-15.73,0-18.84,0-36.48,0-54.12,0-6.17-2.21-8.4-8.36-8.53-3.16-.07-6.33-.06-9.5,0-6.59.11-8.78,2.22-8.79,8.68q0,86.24,0,172.49c0,4.67,1.63,7.73,6.44,8.57,5.76,1,9.43-.82,11.24-5.77,1.34-3.67,2.43-7.43,3.85-11.87,6.16,7.58,12.63,13.78,21.24,17,22.09,8.25,50.44,2.82,64.53-25.49C1052.33,691.75,1052.89,663,1041.88,634.21Zm-26.8,73.91c-4.64,10.87-12.2,18.83-24.67,18.63s-21.64-7-27.27-18c-3.59-7.07-4.83-14.82-5.13-22.69-.15-4.16,0-8.33,0-12.49-.08-9.15-.55-18.31,3-27.09,2.91-7.24,7-13.62,13.14-18.48,12.59-9.9,28-7.44,36.73,5.92,6.29,9.58,8.53,20.46,9.64,31.63C1021.93,680.12,1020.91,694.46,1015.08,708.12Z" transform="translate(-1 -1)"/><path class="a" d="M822.82,679.87c13.49.23,27,.09,40.47.09,13.83,0,27.65,0,41.48,0,6.17,0,8.43-2.37,8.21-8.55a109.21,109.21,0,0,0-1.07-12.93c-2.5-16.1-8-30.76-19.92-42.56-20.44-20.23-70.41-22.77-91.74,16.48-11.23,20.67-13.46,42.7-8.69,65.35,6.54,31.07,25.07,48.69,54.62,51.75,24.37,2.52,49.28-7.13,61.31-32.78,4.12-8.78,3-11.07-6.39-13-1.63-.33-3.27-.62-4.9-.94-8.29-1.62-9.55-1-13.48,6.29-6.27,11.59-15.79,18.85-29.18,18.4-14.32-.48-24.72-8-30.58-21.24-3.07-7-4-14.34-4.3-21.88C818.51,680.94,819.16,679.81,822.82,679.87ZM820,657.31c1.94-14.42,11.31-32,29-34.55,11.59-1.66,20.89,2.66,27.71,12.07,4.5,6.2,6.52,13.35,7.38,20.92.36,3.13-.27,4.36-3.8,4.26-7.11-.2-14.24-.15-21.36-.11l-7.12,0H823.32C821.53,659.92,819.56,660.41,820,657.31Z" transform="translate(-1 -1)"/><path class="a" d="M1250.67,679.93c13.66.15,27.32.07,41,.07,13.83,0,27.65,0,41.48,0,5.34,0,8-2.17,8-6.7,0-16.61-3.54-32.32-12.24-46.68-20.63-34.06-78.66-34-100.13,5.25-11.15,20.39-13.47,42-9.45,64.35,5.5,30.63,24.5,49.24,53.33,53.35,25.81,3.68,50.9-8.73,62.09-30.72,5.48-10.77,4.46-13-7.2-15.4-1.14-.24-2.3-.37-3.44-.59-8.22-1.53-9.21-1-13.32,6.56-6.32,11.59-16,18.7-29.31,18.2-13.89-.52-24.15-7.82-30-20.58-3.39-7.36-4.38-15.25-4.62-23.33C1246.7,680.46,1247.71,679.9,1250.67,679.93Zm18.79-54.81c13.91-6.25,29.43-1,37.26,12.65a45.59,45.59,0,0,1,5.59,18.95c.23,2.64-.43,3.38-3.1,3.34-4.82-.08-9.64-.09-14.46-.09l-14.46,0h-14.46q-7.23,0-14.46,0c-1.35,0-3.32,1-3.34-2C1247.91,646.33,1258.41,630.09,1269.46,625.13Z" transform="translate(-1 -1)"/><path class="a" d="M1265.81,660h14.46l14.46,0-14.46,0Z" transform="translate(-1 -1)"/><path class="a" d="M1780.08,679.93c13.83.16,27.66.07,41.49.07s27.66,0,41.49,0c5.54,0,8-2.48,7.81-7.94a112.45,112.45,0,0,0-.89-11.45c-2-14.93-6.65-28.73-16.39-40.59-21-25.54-73.92-26.92-95.33,12.14-10.06,18.35-12.8,37.94-10.22,58.46,4.48,35.57,27.87,61.29,66.05,59.24,24.53-1.32,42.59-12.83,52.47-35.88,2.17-5.06.47-8.35-4.89-9.66-2.74-.67-5.57-1-8.34-1.52-7.6-1.45-9-.75-12.64,6.11-6.28,11.82-15.93,19.23-29.51,18.71-14.29-.54-24.67-8-30.47-21.41-3.11-7.16-3.79-14.74-4.35-22.41C1776.14,680.59,1777,679.9,1780.08,679.93ZM1778,656c2.23-11.31,6.75-21.24,16.43-28.13a28.28,28.28,0,0,1,38.91,5.45c5.31,6.57,7.56,14.3,8.66,22.51.41,3-.19,4.34-3.75,4.24-9.49-.28-19-.1-28.5-.1-9.33,0-18.67-.13-28,.07C1778.53,660.14,1777.28,659.49,1778,656Z" transform="translate(-1 -1)"/><path class="a" d="M1936.06,602c12.11.09,21.9,1.63,31.12,5.93a43.05,43.05,0,0,1,22.36,23.74c2.36,5.83.65,8.94-5.63,10.48-.65.16-1.28.36-1.93.51-12,2.8-12,2.8-19.3-7.19-9.09-12.47-30.55-16.07-43.29-7.27-5.52,3.81-7.33,9.14-6.67,15.63.63,6.17,4,10.1,9.64,12.15,10.7,3.9,22.13,4.46,33.12,7.08a130.46,130.46,0,0,1,14.43,3.83c17,6.17,26.6,19.31,27.29,36.77.73,18.41-7.31,32.55-24.56,39.55-27,10.95-53.31,10-77.45-8.07-6.83-5.1-11.06-12.32-13.63-20.45-1.55-4.9.2-8.13,5.1-9.42,1.77-.46,3.58-.76,5.37-1.11,11-2.19,11-2.18,16.38,7.68a24.5,24.5,0,0,0,9.73,9.81c11.77,6.54,24.17,8.11,37.09,4.09,9.16-2.86,14.49-9.64,14.59-18.1.09-7.85-4.88-13.64-14.65-16.62-10.68-3.25-21.84-4.37-32.66-7a87.23,87.23,0,0,1-11.44-3.45c-17.74-6.93-26.73-20.35-25.93-38.42s11.64-31.48,29.81-37C1922.48,602.9,1930.19,601.73,1936.06,602Z" transform="translate(-1 -1)"/><path class="a" d="M1144.59,602c10.08.06,19.87,1.59,29.09,5.91a42.66,42.66,0,0,1,22.52,24.18c2.09,5.44.46,8.48-5.27,10-.8.21-1.62.39-2.42.58-12.07,2.82-12.07,2.82-19.34-7.17-9.25-12.72-30.9-16.13-43.61-6.87-5.23,3.81-7.15,9-6.4,15.29.72,6,4.06,10.08,9.75,12.12,10.72,3.85,22.11,4.56,33.12,7,10.43,2.33,20.77,4.73,29,12.3,20.94,19.34,16.1,55-9.95,67.11-24.16,11.23-48.76,10.54-72.43-2.31-10-5.45-16.7-14.08-20.42-24.89-1.93-5.6,0-8.87,5.88-10.12,3.74-.8,7.49-1.58,11.26-2.16,3.53-.54,6.6.78,7.56,4.24,4.4,15.76,26.39,22.1,39.57,20.48a38.87,38.87,0,0,0,12.95-3.47c7.26-3.65,11-9.32,10.74-17.57-.28-7.79-5.08-12-11.68-14.58-9.83-3.84-20.35-4.81-30.58-6.94-7.35-1.53-14.55-3.37-21.26-6.84-13.66-7.05-20.81-18.06-20.88-33.6-.07-15.9,6.44-27.94,20.54-35.54C1122.36,603.67,1133.29,601.89,1144.59,602Z" transform="translate(-1 -1)"/><path class="a" d="M1650.54,674.14c.31,14.52,1.7,27.05,8,38.48,6.61,12.07,17.9,17,30.14,13.36,6.74-2,11.52-6.46,15.08-12.36a54.61,54.61,0,0,0,5.07-12.43,15.22,15.22,0,0,1,1.62-4.13c3.11-4.56,20.19-4.75,23.53-.37a5.2,5.2,0,0,1,1,4.24c-4.24,22.78-18.21,41.9-39.88,47.1-28,6.71-52.75-4.89-63.95-31.21-12.08-28.4-11.7-57.15,1.9-85.05,19-38.88,70.07-37,89.76-10.51a66,66,0,0,1,11.91,28.2c.79,4.38-1.89,7.7-6.69,8a90.66,90.66,0,0,1-12-.17c-4.37-.3-6.22-3.36-7-7.28a37,37,0,0,0-5.84-14.18c-10.17-14.56-29.64-15.49-41-1.87-7.24,8.64-9.73,19.14-11.07,30C1650.63,667.9,1650.66,671.92,1650.54,674.14Z" transform="translate(-1 -1)"/><path class="a" d="M1507.48,709.06,1537,616.17c.1-.32.17-.64.27-1,4.65-15.24,4.4-14.63,21.77-14.16,5.49.15,7.59,3.57,5.88,8.79q-21.65,66.29-43.32,132.57c-1.54,4.72-4.24,7.25-9.48,6.9-4.15-.28-8.32,0-12.49-.06-6.69,0-8.29-1.12-10.47-7.58q-9.89-29.26-19.71-58.54-12.16-36.11-24.34-72.21c-2.31-6.85-.06-9.89,7.36-10,3.5,0,7,0,10.49,0,7.56,0,9.67,1.53,12,8.61Q1490,656,1505.08,702.39C1505.69,704.26,1506.41,706.09,1507.48,709.06Z" transform="translate(-1 -1)"/><path class="b" d="M319.59,279.66l47.5-14.83q27.13-8.48,54.24-17a10.61,10.61,0,0,1,6.77-.13q50,15.57,100,31c1.2.37,2.74.21,3.55,2q-30.58,8.15-61,16.26c-14.14,3.76-28.28,7.46-42.42,11.21a9.67,9.67,0,0,1-5.33.29q-51.69-13.94-103.42-27.7Z" transform="translate(-1 -1)"/><path class="b" d="M26.33,279.8c10.08-3.2,20.14-6.43,30.23-9.59,23.63-7.4,47.27-14.75,70.89-22.2a12.93,12.93,0,0,1,8.22-.12q50.22,15.66,100.5,31.11c.76.24,1.49.58,3.38,1.34-12.44,3.35-23.79,6.45-35.16,9.47q-34.46,9.14-68.93,18.24a12.45,12.45,0,0,1-6.79.1q-51-13.8-102.08-27.4Z" transform="translate(-1 -1)"/><path class="b" d="M384.76,526.56q-52.15,13.84-104.15,27.71a8.79,8.79,0,0,1-4.84-.17L174.6,527a14,14,0,0,1-1.51-.62c1-1.83,2.82-1.73,4.23-2.18q48.29-15.19,96.61-30.28c2.43-.76,4.73-1.32,7.29-.53q51,15.84,101.95,31.61C383.77,525.14,384.52,525.11,384.76,526.56Z" transform="translate(-1 -1)"/><path class="a" d="M1384.13,626.14c3.85-6,7.13-10.59,11.5-14.29a35.49,35.49,0,0,1,27.31-8.53c5.33.51,7.25,2.75,7.43,8.09.48,14.86.42,14.6-13.79,17.83-16.45,3.73-24,16.12-28.53,31-1.9,6.26-1.9,12.82-1.91,19.32q0,30.23,0,60.46c0,7.53-1.79,9.29-9.48,9.34-3.33,0-6.66.05-10,0-4.63-.1-7.06-2.5-7.09-7.17,0-5.33,0-10.66,0-16q0-54.47,0-108.94c0-8.67,1.55-10.23,10.1-10.25,14.44,0,14.44,0,14.46,14.33C1384.13,622.43,1384.13,623.56,1384.13,626.14Z" transform="translate(-1 -1)"/><path class="a" d="M1605.86,675.5q0,33,0,66c0,7.23-2.28,9.46-9.58,9.51-2.67,0-5.33,0-8,0-9.07,0-10.92-1.81-10.91-10.69q0-40.5.07-81,0-25,.05-50c0-7,2.29-9.25,9.25-9.32,3.17,0,6.33,0,9.5,0,7.31.05,9.62,2.31,9.62,9.5Q1605.88,642.5,1605.86,675.5Z" transform="translate(-1 -1)"/><path class="a" d="M1608.4,565.76a16.78,16.78,0,1,1-33.56-.59,16.78,16.78,0,0,1,33.56.59Z" transform="translate(-1 -1)"/></svg>