<svg xmlns="http://www.w3.org/2000/svg" viewBox="0 0 1131.04 322.51"><defs><style>.a{fill:#feca2b;}.b{fill:#fea50f;}.c{fill:#757575;}.d{fill:#f4820c;}</style></defs><title>firebase-icon</title><path class="a" d="M152.63,104.95c2.35.93,3.24-1.11,4.43-2.29q16.66-16.54,33.21-33.19C192.74,67,195.1,65,199,66.26s4.92,4.34,5.46,7.65c3,18.35,5.95,36.72,8.91,55.08q8.32,51.43,16.66,102.86c1.36,8.36,2.66,16.74,4.17,25.08.45,2.46-.48,3.65-2.47,4.75Q179.36,290.73,127,319.81c-7.08,3.91-14.37,3.42-21.44-.54q-49-27.48-98-54.92c-1.74-1-3.57-1.81-5.23-2.91C1.11,260.61-1,260,.5,257.69,42.87,215,85.84,172.9,127.86,129.85a243,243,0,0,0,22.28-22.53A9.23,9.23,0,0,1,152.63,104.95Z"/><path class="b" d="M152.63,104.95c-1,3.47-3.53,5.86-6,8.21-6.08,5.74-11.38,12.3-18.06,17.41-6.29-2.16-9.09-7.65-11.78-13-4.45-8.77-9.29-17.32-14.16-25.85-1.72-3-3.4-7-7.08-7.14S91,89,89.57,91.8c-18.77,36.41-38.23,72.47-57.11,108.83q-13.35,25.71-27.1,51.23c-.94,1.73-1.27,4.76-4.61,3.88,1.63-10.8,3.21-21.61,4.89-32.41q10-64.31,20.09-128.6,6.74-43.12,13.5-86.25c.63-4.05,2-7.59,6.54-8.37,4.36-.75,6.67,2.15,8.51,5.57q19,35.42,38.1,70.82c.53,1,1.09,2,2,3.63,5.25-9.91,10.28-19.25,15.16-28.67,1.69-3.26,3.55-6.25,7.6-6.27s6,2.91,7.74,6.16q12.6,24.13,25.28,48.22C151.09,101.31,151.81,103.15,152.63,104.95Z"/><path class="c" d="M773.46,150.71c-18.79-19.4-46-22.51-67.13-7.71-3.9,2.73-6.67,6.63-10.63,10.51,1.66-22,.59-43.17,1-64.29.07-3.4-.8-4.85-4.42-4.57a64.73,64.73,0,0,1-11.48,0c-4.71-.49-6.17.93-6.14,5.9.21,44,.12,87.93.12,131.89,0,8.83.07,17.65,0,26.48,0,2.65.55,4,3.56,3.89,4.66-.19,9.33-.16,14,0,2.65.09,3.53-1,3.44-3.51-.14-3.82,0-7.64,0-11.47l1.43-1a7.67,7.67,0,0,0,.72,1.9c13.62,18.65,41.67,22.31,60.5,12.38C794.07,232.29,801.93,180.09,773.46,150.71Zm-10.9,68c-7.74,13.76-21.73,19.7-37.35,17-13.85-2.35-25.36-14.25-28.42-29.4a50.59,50.59,0,0,1-1.06-11.41c.14-14.83,4.84-27.51,17.84-35.85A34.85,34.85,0,0,1,763,172.36C771.18,187.56,771.08,203.56,762.56,218.71Z"/><path class="c" d="M903.31,179.88c-.35-21.83-13.63-38.33-34.76-44a64.3,64.3,0,0,0-31.65-.36c-13.23,3.1-22.78,11.16-29.83,22.55-1.77,2.86-1.43,4.25,1.81,5.43,4.53,1.65,8.91,3.7,13.31,5.69,2,.89,3.17.83,4.36-1.4,4.74-8.93,12.95-12.54,22.44-13.79,17.47-2.29,32.43,9.27,33.53,25.61.26,3.81-.39,4.56-4.22,3.06-18.51-7.26-37.09-7.26-55.2,1.16-23.19,10.78-29.77,40.44-13.33,58.63,17.75,19.63,53.13,18.51,69.54-2.18.78-1,1.12-2.44,3.24-2.83,0,4.19.11,8,0,11.84-.1,2.59.86,3.56,3.47,3.47,4.49-.15,9-.19,13.49,0,3,.14,4-.89,4-4C903.36,225.85,903.68,202.86,903.31,179.88Zm-20.89,26.43c-1.94,20.86-27.44,36.12-46.72,27.87-8-3.4-12-8.92-11.95-16.14.09-8,6.09-16.2,14.25-19.36a45.43,45.43,0,0,1,18.09-2.9c8.2.21,16.22,1.14,23.53,5.36C881.7,202.34,882.65,203.72,882.41,206.31Z"/><path class="c" d="M1044.44,199.05q20.49,0,41,0c13.66,0,27.32-.1,41,.07,3.39,0,4.78-.86,4.63-4.44a94.24,94.24,0,0,0-1.52-15.88c-4.29-20.16-14.95-35.45-35.09-41.82-19.84-6.28-39.07-4.54-55.29,10-17.43,15.6-23,35.77-20.23,58.41,3.14,25.77,21.1,45.18,45.54,50s47.39-4.29,59.26-23.5c4.1-6.64,4.1-6.63-2.82-9.6-1.53-.66-3-1.39-4.57-2-7.51-3.13-7.51-3.12-12.22,3.51-7.95,11.19-24.19,15.71-39.17,10.91-13.26-4.25-24.37-19.12-24.54-32.37C1040.32,198.8,1042.19,199,1044.44,199.05Zm-1.89-21.18a34,34,0,0,1,28.5-23.93c14.52-1.61,27.11,4.65,33.56,16.69,4.88,9.11,4.18,10.36-5.79,10.36h-24c-9.82,0-19.63,0-29.45,0C1043.24,181,1041.56,181.25,1042.56,177.87Z"/><path class="c" d="M324.41,168.75c0-26.16.09-52.33-.09-78.49,0-4.19.77-5.71,5.39-5.67,29.33.23,58.66.18,88,0,3.81,0,5.45.81,5.05,4.93a61.58,61.58,0,0,0,0,11.48c.36,3.94-1.26,4.66-4.84,4.64-22-.15-44,.06-66-.19-4.59-.05-5.88,1.18-5.79,5.76.29,14.49.26,29,0,43.49-.07,4.27.92,5.79,5.47,5.74,19.83-.24,39.66,0,59.49-.23,3.51,0,4.35,1,4.19,4.17a110.11,110.11,0,0,0,0,12c.21,3.49-1.07,4.55-4.56,4.52-19.66-.15-39.33.06-59-.17-4.31,0-5.68,1-5.63,5.49.25,20.49,0,41,.19,61.49,0,3.88-1,5.43-5,5.08a69.86,69.86,0,0,0-12,0c-4.08.36-5-1.24-5-5.08C324.48,221.41,324.41,195.08,324.41,168.75Z"/><path class="c" d="M965.14,133.79c16.2.67,31.36,6.16,40.87,22.52,2,3.46,1.69,5.37-2.35,6.33a26.92,26.92,0,0,0-3.7,1.48c-3.09,1.25-6.11,3.26-9.28,3.54-4,.35-4.19-4.43-6.36-6.69-8.65-9-30.45-10.25-39.86-1.95-6.22,5.48-5.5,14,1.64,18.54,4.89,3.1,10.59,3.83,16,5.26,9,2.36,18.28,3.63,26.88,7.45,12.08,5.36,19.64,14.19,20.7,27.63,1.11,14.12-5.64,24.36-17.25,31.51-26.09,16.07-62.59,5.47-76.49-21.86-1.64-3.22-1.32-4.56,2-5.75a115.53,115.53,0,0,0,12-5c2.75-1.34,3.94-.57,5.33,2,8.17,15.22,22.91,21.5,39.11,16.81,4.57-1.32,8.66-3.51,11.21-7.79,4-6.77,1.81-14.56-5.49-18.75-6.62-3.8-14.18-4.7-21.43-6.41-10.27-2.42-20.25-5.17-28.95-11.62-14.8-11-16.1-31.75-2.49-44.24C937.55,137.38,950,134,965.14,133.79Z"/><path class="d" d="M.75,255.74c4.69-3.59,6-9.32,8.61-14.15C26.37,209.83,43,177.88,59.8,146q13.55-25.81,27-51.66c1.39-2.65,2.83-5.27,4.37-7.82,3.19-5.28,5.14-5.56,9.1-.36,3.19,4.2,5.66,9,8.26,13.59,4.07,7.24,8.16,14.47,11.88,21.89,1.92,3.84,5.68,5.73,8.1,9-41.14,42.6-83.6,83.89-125.32,125.91-.65.66-1.13,2.38-2.71,1.21Z"/><path class="c" d="M503.72,154.82c5.21-8.75,12.77-14.09,21.84-17.65,8.25-3.23,16.6-2.84,25-.88,3.09.72,3.81,2.23,2.24,4.95a8.87,8.87,0,0,0-1,2.28c-2.31,9.57-6,14.85-18.21,13.54-16-1.7-28.74,13.65-28.92,31.67-.2,19.66-.14,39.33,0,59,0,3.79-.78,5.46-4.92,5.1a87.32,87.32,0,0,0-13,0c-3.41.22-4.18-1.13-4.16-4.3.12-19.33.06-38.66.06-58,0-16.17.1-32.33-.08-48.5,0-3.53,1-4.69,4.51-4.47a99.16,99.16,0,0,0,12.49,0c3.4-.21,4.31,1.14,4.14,4.32C503.55,146.17,503.72,150.5,503.72,154.82Z"/><path class="c" d="M437.79,194.69c0-17.47.1-34.94-.08-52.4,0-3.74,1-5,4.78-4.75a99.56,99.56,0,0,0,13,0c3.28-.19,4.28.95,4.24,4.21-.15,14-.06,27.95-.06,41.92,0,21.46-.09,42.92.08,64.38,0,3.71-.95,5-4.73,4.75a83.85,83.85,0,0,0-12.47,0c-3.71.27-4.86-.93-4.82-4.72C437.89,230.29,437.79,212.49,437.79,194.69Z"/><path class="c" d="M464,98.37a15.24,15.24,0,1,1-15.27-15.6A15.09,15.09,0,0,1,464,98.37Z"/><path class="c" d="M573.51,199.05q20.48,0,41,0c13.49,0,27-.21,40.46.12,4.43.11,5.5-1.63,5.22-5.44a130.07,130.07,0,0,0-1.62-15.88c-7.62-38.53-52.18-57.3-84.71-35.15-17.7,12-25.73,29.66-26.47,51.09-1.12,32.41,20.75,60.7,53.9,62.57,22.46,1.26,40.41-6.49,52.49-26,3.29-5.33,3.16-5.39-2.43-7.59a71.66,71.66,0,0,1-8.27-3.5c-4.12-2.26-7-2.46-8.91,2.83-.78,2.21-2.77,4.19-4.61,5.82-11.17,9.9-24.12,10.78-37.39,5.91-13.07-4.8-22.54-18.94-22.72-31.52C569.36,198.81,571.26,199,573.51,199.05Zm-2-21.34c3.6-12.66,16.31-23,29.71-23.83,15.94-1,28.18,6.09,33.76,19.59,2.9,7,2.58,7.53-4.75,7.53H603.77c-9.82,0-19.64,0-29.46,0C571.83,181,570.65,180.76,571.52,177.71Z"/></svg>