<svg xmlns="http://www.w3.org/2000/svg" xmlns:xlink="http://www.w3.org/1999/xlink" viewBox="0 0 512 512"><defs><style>.a{fill:none;}.b{clip-path:url(#a);}.c{fill:#e1ffff;}</style><clipPath id="a" transform="translate(-43 -165.89)"><rect class="a" x="42" y="164.89" width="512" height="512"/></clipPath></defs><title>github-icon-light</title><g class="b"><path class="c" d="M555,407.89v28c-1.1,8.87-1.88,17.8-3.34,26.61-8.1,49-28.37,92.34-61.54,129.3-41.3,46-92.65,73.91-153.92,83.16-7.7,1.16-15.46,2-23.2,2.93H285a32.36,32.36,0,0,0-4.36-.86c-19.18-1.19-38.1-4.28-56.25-10.46C127,633.41,67.43,566.58,47,465.48c-1.9-9.41-2.67-19.05-4-28.59v-30a32.23,32.23,0,0,0,.91-4.32c3-40.37,14.62-78.11,36-112.47,42.18-67.93,102.88-108.56,182-121.29,7.35-1.18,14.76-2,22.15-2.93h30c8.54,1.09,17.12,1.9,25.6,3.32,53.78,9,100.38,32.38,139.1,70.79q60.77,60.28,73.38,145.2C553.2,392.74,554,400.32,555,407.89Zm-311,177c-3.6.6-6.53,1.18-9.49,1.55-3.14.39-6.3.65-9.46.82-26.84,1.5-49.78-10.38-58.81-35.27a58.52,58.52,0,0,0-24.31-30.22c-3.16-2-7.66-7.13-6.92-9,1.85-4.6,7.48-3.77,11.92-3.17,14.34,1.94,24.45,10.37,31.49,22.3,15,25.38,38.56,29,63,19.74,1.34-.51,3-1.94,3.27-3.2,2-10.47,6-20,13.43-28-10.79-2.29-21.27-4-31.46-6.77-26-7.06-47-21-59.22-45.93-7.82-16-10.53-33.2-11.36-50.8-1.15-24.23,4.76-46.17,20.72-65a6.13,6.13,0,0,0,.82-4.91c-4.53-15.34-3.88-30.59.38-45.82,3.25-11.62,4.24-12.17,16.31-9.73,16.3,3.29,30.47,11.27,44.46,19.77,2,1.22,5.06,2,7.22,1.44a205.56,205.56,0,0,1,106.19,0c2.18.57,5.11-.25,7.25-1.32,10.4-5.2,20.36-11.4,31.06-15.83,6.9-2.86,14.77-3.48,22.29-4.62,1.43-.22,4.16,1.51,4.69,2.93,6.24,16.78,8.11,34,3.24,51.43-1,3.48-.61,5.76,1.69,8.51a78.09,78.09,0,0,1,17.57,37,131.54,131.54,0,0,1-6.82,70.7C426,480.35,413.54,495,395.51,503.86c-10.2,5-21.25,8.51-32.18,11.83-7.49,2.27-15.42,3-23.76,4.6C351.34,532.5,354,547.15,354,562.68q0,28.75,0,57.49c0,12.68,6.82,17.48,18.82,13.27,105.33-36.93,167.83-146.51,146-255.88-25.23-126.1-151.59-205.23-276-172.84C136,232.51,64.83,333.87,76.29,443.73,83.88,516.47,119.43,573,181.22,612.18c14.05,8.91,30,15,45.39,21.6,8.47,3.63,17-1.26,17.24-9.35C244.3,611.47,244,598.48,244,584.9Z" transform="translate(-43 -165.89)"/></g></svg>