<svg xmlns="http://www.w3.org/2000/svg" viewBox="0 0 512 512.01"><defs><style>.a{fill:#e1ffff;}</style></defs><title>github-icon-light</title><path class="a" d="M512,242v28c-1.1,8.87-1.88,17.8-3.34,26.61-8.1,49-28.37,92.34-61.54,129.3-41.3,46-92.65,73.91-153.92,83.16-7.7,1.16-15.46,2-23.2,2.93H242a32.36,32.36,0,0,0-4.36-.86c-19.18-1.19-38.1-4.28-56.25-10.46C84,467.52,24.43,400.69,4,299.59c-1.9-9.41-2.67-19-4-28.59V241a32.23,32.23,0,0,0,.91-4.32c3-40.37,14.62-78.11,36-112.47C79.09,56.28,139.79,15.65,218.91,2.92c7.35-1.18,14.76-2,22.15-2.93h30c8.54,1.09,17.12,1.9,25.6,3.32,53.78,9,100.38,32.38,139.1,70.79q60.77,60.28,73.38,145.2C510.2,226.85,511,234.43,512,242ZM201,419c-3.6.6-6.53,1.18-9.49,1.55-3.14.39-6.3.65-9.46.82-26.84,1.5-49.78-10.38-58.81-35.27a58.52,58.52,0,0,0-24.31-30.22c-3.16-2-7.66-7.13-6.92-9,1.85-4.6,7.48-3.77,11.92-3.17,14.34,1.94,24.45,10.37,31.49,22.3,15,25.38,38.56,29,63,19.74,1.34-.51,3-1.94,3.27-3.2,2-10.47,6-20,13.43-28-10.79-2.29-21.27-4-31.46-6.77-26-7.06-47-21-59.22-45.93-7.82-16-10.53-33.2-11.36-50.8-1.15-24.23,4.76-46.17,20.72-65a6.13,6.13,0,0,0,.82-4.91c-4.53-15.34-3.88-30.59.38-45.82,3.25-11.62,4.24-12.17,16.31-9.73,16.3,3.29,30.47,11.27,44.46,19.77,2,1.22,5.06,2,7.22,1.44a205.56,205.56,0,0,1,106.19,0c2.18.57,5.11-.25,7.25-1.32,10.4-5.2,20.36-11.4,31.06-15.83,6.9-2.86,14.77-3.48,22.29-4.62,1.43-.22,4.16,1.51,4.69,2.93,6.24,16.78,8.11,34,3.24,51.43-1,3.48-.61,5.76,1.69,8.51a78.09,78.09,0,0,1,17.57,37,131.54,131.54,0,0,1-6.82,70.7C383,314.46,370.54,329.11,352.51,338c-10.2,5-21.25,8.51-32.18,11.83-7.49,2.27-15.42,3-23.76,4.6C308.34,366.61,311,381.26,311,396.79v57.49c0,12.68,6.82,17.48,18.82,13.27,105.33-36.93,167.83-146.51,146-255.88C450.59,85.57,324.23,6.44,199.82,38.83,93,66.62,21.83,168,33.29,277.84c7.59,72.74,43.14,129.27,104.93,168.45,14.05,8.91,30,15,45.39,21.6,8.47,3.63,17-1.26,17.24-9.35.45-13,.15-26,.15-39.53Z" transform="translate(0 0.01)"/></svg>