<svg id="svg2" xmlns="http://www.w3.org/2000/svg" viewBox="0 0 791.31 512"><defs><style>.cls-1{fill:#264de4;}.cls-2{fill:#2965f1;}.cls-3{fill:#ebebeb;}.cls-4{fill:#fff;}.cls-5{fill:#e44d26;}.cls-6{fill:#f16529;}</style></defs><title>html-css-icon-white</title><g id="layer1"><g id="g3013"><polygon id="polygon2989" class="cls-1" points="181.15 512 33.01 470.88 0 100.62 362.73 100.62 329.69 470.82 181.15 512"/><polygon id="polygon2991" class="cls-2" points="301.4 447.25 329.64 130.89 181.37 130.89 181.37 480.52 301.4 447.25"/><polygon id="polygon2993" class="cls-3" points="75.68 268.22 79.75 313.63 181.37 313.63 181.37 268.22 75.68 268.22"/><polygon id="polygon2995" class="cls-3" points="67.5 176.31 71.63 221.72 181.37 221.72 181.37 176.31 181.21 176.31 67.5 176.31"/><polygon id="polygon2997" class="cls-3" points="181.37 386.15 181.17 386.21 130.59 372.55 127.36 336.33 102.79 336.33 81.78 336.33 88.14 407.63 181.16 433.46 181.37 433.4 181.37 386.15"/><path id="path2999" class="cls-4" d="M85.37,0h55V23h-32V46h32V69h-55Z" transform="translate(0 0)"/><path id="path3001" class="cls-4" d="M151.37,0h55V20h-32v4h32V70h-55V49h32V45h-32Z" transform="translate(0 0)"/><path id="path3003" class="cls-4" d="M217.37,0h55V20h-32v4h32V70h-55V49h32V45h-32Z" transform="translate(0 0)"/><polygon id="polygon3005" class="cls-4" points="286.77 268.22 294.96 176.31 181.21 176.31 181.21 221.72 245.2 221.72 241.07 268.22 181.21 268.22 181.21 313.63 237.13 313.63 231.86 372.52 181.21 386.19 181.21 433.44 274.3 407.63 274.99 399.96 285.66 280.41 286.77 268.22"/></g><g id="g3054"><polygon id="polygon3028" class="cls-5" points="791.3 100.62 758.26 470.82 609.72 512 461.58 470.88 428.57 100.62 791.3 100.62"/><polygon id="polygon3030" class="cls-6" points="609.94 480.52 729.97 447.25 758.21 130.89 609.94 130.89 609.94 480.52"/><polygon id="polygon3032" class="cls-3" points="545.7 221.72 609.94 221.72 609.94 176.31 609.78 176.31 496.07 176.31 497.16 188.49 508.32 313.63 609.94 313.63 609.94 268.22 549.85 268.22 545.7 221.72"/><polygon id="polygon3034" class="cls-3" points="555.93 336.33 531.36 336.33 510.35 336.33 516.71 407.63 609.73 433.46 609.94 433.4 609.94 386.15 609.74 386.21 559.16 372.55 555.93 336.33"/><path id="path3036" class="cls-4" d="M462.32,0H485.4V22.8h21.11V0h23.08V69H506.51V45.92H485.4V69H462.32V0Z" transform="translate(0 0)"/><path id="path3038" class="cls-4" d="M559.93,22.9H539.62V0h63.72V22.9H583V69H559.93V22.9Z" transform="translate(0 0)"/><path id="path3040" class="cls-4" d="M613.45,0h24.06l14.8,24.26L667.1,0h24.07V69h-23V34.82L652.31,59.37h-.4L636,34.82V69H613.45V0Z" transform="translate(0 0)"/><path id="path3042" class="cls-4" d="M702.66,0h23.08V46.22H758.2V69H702.66Z" transform="translate(0 0)"/><polygon id="polygon3044" class="cls-4" points="609.78 313.63 665.7 313.63 660.43 372.52 609.78 386.19 609.78 433.44 702.88 407.63 703.56 399.96 714.23 280.41 715.34 268.22 703.1 268.22 609.78 268.22 609.78 313.63"/><polygon id="polygon3046" class="cls-4" points="609.78 221.6 609.78 221.72 719.32 221.72 719.32 221.72 719.47 221.72 720.38 211.51 722.45 188.49 723.53 176.31 609.78 176.31 609.78 204.51 609.78 221.6"/></g></g></svg>