<svg xmlns="http://www.w3.org/2000/svg" viewBox="0 0 515.53 116.38"><defs><style>.a{fill:#21ace2;}.b{fill:#fff;}</style></defs><title>jQuery-icon</title><path class="a" d="M95.44,367.05l-2.62,3.6a17.86,17.86,0,0,0-1.4,17.23,24.25,24.25,0,0,0,13.91,13l.76.26.34.11a10,10,0,0,0,1.09.31c16.92,3.27,21.51-8.68,22.73-10.44-4,5.79-10.78,7.17-19.07,5.16-.65-.16-1.37-.39-2-.61a24.48,24.48,0,0,1-6.56-3.55c-7.42-5.63-12-16.36-7.2-25.1Zm-19.19,4.19-4.85,6.84c-5.94,8.54-5.61,20-1,29A38.23,38.23,0,0,0,73,411.47a21,21,0,0,0,3.07,3.82q.64.71,1.32,1.39l.36.34c.44.43.89.85,1.36,1.26l0,0,0,0c.51.45,1,.88,1.59,1.31l.36.28c.54.42,1.1.83,1.67,1.22l0,0c.25.17.51.33.76.5l.36.23c.41.26.82.51,1.23.75l.17.11,1.09.61.39.2.76.39.11.06c.52.26,1.05.5,1.59.73l.36.14c.43.18.86.36,1.29.53l.56.2,1.2.42.55.17a13.26,13.26,0,0,0,1.73.5c30.64,5.08,37.72-18.51,37.72-18.51-6.38,9.19-18.73,13.56-31.91,10.14-.59-.15-1.17-.32-1.74-.5l-.51-.17-1.22-.42-.55-.2c-.44-.17-.88-.35-1.31-.53l-.36-.14c-.54-.24-1.06-.49-1.59-.75l-.81-.41L92.3,415l-1-.58-.23-.14c-.42-.24-.83-.49-1.23-.75l-.37-.25-.79-.53c-.57-.39-1.11-.8-1.65-1.22l-.37-.28a37,37,0,0,1-12.53-17.84,27.67,27.67,0,0,1,2.17-22.2Zm-23.92,8.65L45.93,388c-8.21,11.79-7.19,27.15-.92,39.68.15.3.31.59.47.89s.18.38.28.56l.19.33c.11.2.22.38.33.58.2.34.4.69.61,1l.33.56c.23.36.47.73.7,1.09l.3.45c.33.49.67,1,1,1.45l0,0,.17.23c.3.41.61.81.92,1.22l.34.44c.28.35.57.7.86,1l.31.39c.39.45.78.9,1.18,1.34l0,0,0,0c.39.43.79.84,1.2,1.26l.37.39,1,.93.39.37c.43.41.86.81,1.31,1.2l0,0,.22.2c.39.34.8.67,1.2,1l.48.39,1,.78.53.41c.37.27.75.55,1.12.81l.41.28.11.08,1.09.72.47.31c.56.35,1.13.71,1.7,1l.47.26c.42.24.83.48,1.26.72l.72.36.9.47.22.11.36.17,1.45.67.31.14q.83.37,1.68.7l.41.16c.53.2,1.06.41,1.59.59l.2.08c.59.2,1.18.39,1.78.58l.42.12a16.81,16.81,0,0,0,1.82.51C119,462.49,130.5,431.4,130.5,431.4c-9.68,12.62-26.87,16-43.16,12.25-.62-.14-1.22-.34-1.82-.51l-.45-.14c-.59-.18-1.17-.36-1.74-.56l-.23-.09c-.52-.18-1-.38-1.54-.58l-.44-.17c-.56-.22-1.12-.45-1.67-.69l-.34-.14-1.4-.65-.41-.2-1.08-.55-.73-.39-1.31-.73-.44-.23c-.58-.34-1.14-.69-1.7-1l-.45-.31c-.41-.26-.82-.52-1.22-.79l-.37-.28c-.39-.27-.78-.55-1.15-.83l-.5-.37-1-.81-.47-.37c-.43-.36-.85-.71-1.28-1.08l-.14-.11c-.46-.4-.91-.82-1.36-1.23l-.37-.37-1-1-.39-.37c-.4-.41-.8-.84-1.18-1.26l-.06-.06c-.41-.45-.81-.91-1.2-1.37l-.31-.37c-.29-.35-.59-.72-.87-1.08l-.31-.39c-.34-.44-.69-.89-1-1.34-9-12.33-12.29-29.34-5.06-43.31Z" transform="translate(-40.04 -357.99)"/><path class="b" d="M247.91,358c-29.72,0-42.64,21.4-47.57,44.67-4.92,23.43,1.53,44,31.08,43.81l23.32-.08,21.78-.08a2.11,2.11,0,0,0,1.92-1.48l3.8-14.49a1.13,1.13,0,0,0-1.15-1.48l-3.63,0-3.65,0a.92.92,0,0,1-1-1.08l.09-.34s8.22-20,10.1-31.53C285.53,380.4,277.8,358,247.91,358Zm306.8,8.55-4.8,0-3.05,0h-12.7a3.25,3.25,0,0,0-2.38,1.26L503.68,409c-.47.7-1,.6-1.2-.22l-2.06-9.07a2,2,0,0,0-1.87-1.48H480.5a1.09,1.09,0,0,0-1.11,1.46L487.48,428a6.69,6.69,0,0,1,0,2.94L484,444.67a1.13,1.13,0,0,0,1.15,1.48H503a2.09,2.09,0,0,0,1.92-1.48L508.42,431a9.07,9.07,0,0,1,1.29-2.7l45.6-60.51c.51-.67.23-1.22-.61-1.22Zm-154.94,9.11c-29.38,0-36.34,17.83-40.24,35.83-3.91,18.35-3.57,35.49,26.83,35.49h4.83l3.65,0h.06c8,0,16.07-.1,19.33-.12a2,2,0,0,0,1.82-1.5l1.23-6,.25-1.17L419,431a1.2,1.2,0,0,0-1.23-1.5H390.43c-10.87,0-14.1-2.88-12.92-11.37h43.73a1.81,1.81,0,0,0,1.59-1.14l.11-.37h0c6.49-24.47,4.63-40.94-23.17-40.94Zm-154.32.58c16.4-.47,19.62,11.73,15.46,25.74l-.42,1.46v0l-3.29,11.68-3.3,11.68a2.16,2.16,0,0,1-1.95,1.48H234.49c-13.25,0-16.48-10.36-13.26-25.64,3.22-15.63,9.55-25.35,22.59-26.33C244.38,376.28,244.92,376.25,245.45,376.23Zm-66.53.25A2,2,0,0,0,177,378l-1.57,6.95-1.57,6.95a1.17,1.17,0,0,0,1.18,1.5h16.73a2,2,0,0,0,1.85-1.5l1.53-6.95,1.53-6.95a1.18,1.18,0,0,0-1.2-1.5Zm121.13.19a2,2,0,0,0-1.84,1.5L294.88,394l-3.35,15.83v0l-.31,1.48c-3.84,17.55-2.82,34.28,18.07,34.81h33.39a2,2,0,0,0,1.84-1.5l7.07-33.23,7.07-33.23a1.19,1.19,0,0,0-1.22-1.5H342.34a2,2,0,0,0-1.85,1.5L335.12,403l-5.38,24.83a2,2,0,0,1-1.84,1.5h-10.7c-10.59,0-9.37-7.32-7.2-17.36l.06-.3.23-1.28,0-.23.48-2.57.51-2.76c.16-.83.41-2.05.56-2.82l2.45-11.92,2.43-11.92a1.2,1.2,0,0,0-1.22-1.5Zm143.16.17a2,2,0,0,0-1.85,1.5l-.61,2.91-.73,3.46-.2,1-6.29,29.48-6,28a6.48,6.48,0,0,0-.12,2.24c.1.41,1.7.73,2.54.73h12.62a7.9,7.9,0,0,0,2.35-.33c.46-.19,1.14-1.84,1.31-2.66l2.24-11.08L450.73,421v0l.3-1.48,2.73-12.74,2.4-11.25A2,2,0,0,1,458,394l39.68,0a1.16,1.16,0,0,0,1.17-1.5l-.69-2.87-.69-2.93-.36-1.5c-1.36-5.28-5.34-8.32-14-8.32l-13.49,0-12.42,0h-14Zm-47.35,15.46c9.42,0,11.25,4.59,10.61,9.77a1.84,1.84,0,0,1-1.78,1.57H381.82a1,1,0,0,1-1.09-1.2l0,0,0-.08s0-.16.09-.39c2.19-5.81,6.65-9.63,15-9.63ZM174,398.1a2,2,0,0,0-1.85,1.5L169.76,410l-2.35,10.41c-.19.82-.48,2.17-.65,3L164.49,434l-2.26,10.63c-.18.82-.54,2.15-.81,2.94,0,0-3.13,9.3-8.38,9.19h-.65l-4.55-.09a2,2,0,0,0-1.87,1.46l-1.74,7.29-1.73,7.29a1.18,1.18,0,0,0,1.17,1.51c3,0,9.65.11,13.69.11,13.13,0,20.05-7.28,24.49-28.22l5.19-24,4.88-22.53a1.19,1.19,0,0,0-1.22-1.5H174Z" transform="translate(-40.04 -357.99)"/></svg>